<svg xmlns="http://www.w3.org/2000/svg" viewBox="0 0 500 500" width="100%" height="100%" fill="currentColor" role="img" aria-label="IDEA logo">
	<path d="M 180.308 91.999 C 174.706 94.283, 174.946 89.648, 175.235 189.935 L 175.500 282.174 178.306 284.587 L 181.112 287 250 287 L 318.888 287 321.694 284.587 L 324.500 282.174 324.725 221.837 L 324.950 161.500 320.626 166.180 C 316.654 170.479, 316.250 171.414, 315.658 177.680 C 315.304 181.431, 315.011 187.896, 315.007 192.047 C 315 199.457, 314.932 199.659, 311.250 203.197 L 307.500 206.800 301.520 205.575 C 295.786 204.400, 295.504 204.198, 294.670 200.675 C 293.477 195.628, 291.639 195.903, 292.500 201 L 293.176 205 289.288 205 C 283.877 205, 283 206.298, 283 214.307 C 283 220.489, 282.816 221.139, 281.250 220.505 C 275.557 218.197, 273.784 217.816, 272.894 218.706 C 272.289 219.311, 273.412 220.146, 275.970 220.990 C 278.186 221.722, 280 222.645, 280 223.041 C 280 224.041, 273.380 229, 272.045 229 C 271.447 229, 270.445 227.875, 269.818 226.500 C 269.192 225.125, 268.252 224, 267.731 224 C 267.210 224, 267.066 225.125, 267.411 226.500 C 267.972 228.738, 267.733 229, 265.126 229 C 263.460 229, 261.968 229.642, 261.638 230.500 C 261.179 231.698, 261.978 232, 265.605 232 C 269.391 232, 270.091 232.291, 269.813 233.750 C 269.544 235.162, 268.233 235.559, 263.028 235.803 C 256.912 236.091, 254 237.161, 254 239.122 C 254 239.605, 256.914 240, 260.475 240 L 266.950 240 266.350 243 C 265.555 246.973, 267.627 246.973, 268.500 243 C 269.464 238.609, 272.471 239.043, 274.967 243.935 L 276.974 247.870 274.314 248.185 C 269.838 248.715, 270.402 250.844, 275.109 251.189 C 281.121 251.630, 281.521 254, 275.583 254 C 273.063 254, 271 254.450, 271 255 C 271 255.550, 273.448 256, 276.441 256 C 279.434 256, 282.155 256.441, 282.488 256.980 C 283.393 258.445, 276.779 266.916, 274.694 266.961 C 273.492 266.987, 272.163 265.410, 270.723 262.250 C 268.980 258.426, 268.492 257.929, 268.216 259.698 C 268.028 260.908, 268.353 262.790, 268.937 263.883 C 269.522 264.975, 270 266.236, 270 266.684 C 270 268.081, 187.164 267.381, 185.463 265.969 C 184.203 264.923, 184 254.305, 184 189.378 L 184 114 249.978 114 L 315.956 114 315.530 120.473 C 315.296 124.034, 315.466 127.170, 315.907 127.443 C 316.348 127.715, 317.753 126.828, 319.028 125.471 C 321.200 123.159, 321.461 123.107, 323.173 124.656 C 324.934 126.251, 325 125.786, 325 111.711 C 325 97.720, 324.899 96.995, 322.587 94.306 L 320.174 91.500 251.337 91.303 C 212.702 91.192, 181.538 91.498, 180.308 91.999 M 185.518 101.624 C 184.468 102.675, 184.001 104.529, 184.197 106.874 L 184.500 110.500 249.729 110.757 L 314.958 111.014 315.569 108.579 C 316.264 105.814, 315.274 101.858, 313.615 100.765 C 313.002 100.361, 284.295 100.024, 249.821 100.015 C 193.295 100.002, 186.983 100.159, 185.518 101.624 M 298.224 104.176 C 296.064 106.336, 298.863 108, 304.654 108 C 308.691 108, 310.219 107.594, 310.677 106.399 C 311.015 105.519, 310.663 104.400, 309.896 103.914 C 307.853 102.621, 299.594 102.806, 298.224 104.176 M 188.431 105.112 C 187.677 106.332, 189.923 108.166, 191.202 107.375 C 191.641 107.104, 192 106.234, 192 105.441 C 192 103.744, 189.423 103.506, 188.431 105.112 M 195 105.333 C 195 107.214, 195.962 107.952, 197.598 107.324 C 199.725 106.508, 199.274 104, 197 104 C 195.900 104, 195 104.600, 195 105.333 M 201.570 104.887 C 200.889 105.988, 203.438 108.229, 204.342 107.325 C 204.704 106.963, 205 106.067, 205 105.333 C 205 103.844, 202.422 103.508, 201.570 104.887 M 193.796 125.288 C 193.125 128.795, 193.917 130.006, 196.833 129.937 L 199.500 129.873 197 128.832 C 194.689 127.869, 194.645 127.736, 196.427 127.070 C 198.329 126.359, 198.329 126.339, 196.427 125.537 C 194.646 124.786, 194.689 124.667, 197 123.962 L 199.500 123.199 196.867 123.100 C 194.877 123.024, 194.126 123.559, 193.796 125.288 M 200.969 124.942 C 201.484 125.905, 201.391 127.345, 200.738 128.526 C 199.759 130.296, 199.819 130.358, 201.323 129.128 C 202.710 127.992, 203.273 127.982, 204.581 129.067 C 205.853 130.123, 206.553 130.136, 208.160 129.132 C 209.716 128.160, 210.476 128.150, 211.603 129.085 C 213.726 130.847, 214.008 129.920, 212.464 126.250 C 210.764 122.209, 209.597 122.144, 208 126 C 207.317 127.650, 206.410 129, 205.986 129 C 204.651 129, 203.920 125.801, 204.967 124.540 C 205.710 123.644, 205.213 123.333, 203.038 123.333 C 200.655 123.333, 200.269 123.634, 200.969 124.942 M 215.116 126.750 C 215.180 128.813, 215.442 129.689, 215.700 128.697 C 216.082 127.221, 216.438 127.118, 217.660 128.133 C 218.859 129.128, 219.331 129.089, 220.061 127.936 C 220.807 126.757, 220.972 126.813, 220.985 128.250 C 220.993 129.213, 221.450 130, 222 130 C 222.550 130, 223 128.425, 223 126.500 C 223 122.713, 221.725 121.957, 220.050 124.750 C 219.051 126.417, 218.937 126.417, 217.640 124.750 C 215.598 122.123, 214.988 122.606, 215.116 126.750 M 224.187 126.250 C 224.460 129.082, 224.886 129.520, 227.500 129.659 C 229.515 129.765, 229.761 129.660, 228.250 129.339 C 225.596 128.775, 225.224 127.013, 227.750 126.970 C 229.280 126.943, 229.249 126.793, 227.500 125.772 C 225.564 124.641, 225.580 124.581, 228 123.902 C 230.288 123.259, 230.219 123.191, 227.187 123.100 C 224.034 123.005, 223.888 123.158, 224.187 126.250 M 231 126.500 C 231 128.425, 231.450 130, 232 130 C 232.550 130, 233 129.255, 233 128.345 C 233 126.805, 233.127 126.805, 234.829 128.345 C 237.469 130.735, 238 130.426, 238 126.500 C 238 124.575, 237.550 123, 237 123 C 236.450 123, 236 123.745, 236 124.655 C 236 126.195, 235.873 126.195, 234.171 124.655 C 231.531 122.265, 231 122.574, 231 126.500 M 243.161 125.547 C 241.529 129.127, 241.667 130.522, 243.500 129 C 244.698 128.006, 245.307 128.010, 246.524 129.020 C 248.724 130.846, 249.025 129.960, 247.464 126.250 C 245.817 122.337, 244.706 122.155, 243.161 125.547 M 249.747 124.858 C 248.926 127.998, 250.799 130.042, 254.306 129.835 C 256.063 129.731, 258.063 129.221, 258.750 128.701 C 259.564 128.085, 260.532 128.197, 261.524 129.020 C 263.682 130.811, 263.925 130, 262.355 126.250 C 260.685 122.262, 259.206 122.110, 257.921 125.796 C 257.169 127.955, 256.326 128.582, 254.223 128.546 C 252.182 128.512, 251.500 127.999, 251.500 126.500 C 251.500 125.299, 252.171 124.495, 253.179 124.487 C 254.103 124.480, 255.191 124.143, 255.596 123.737 C 256.002 123.332, 254.961 123, 253.283 123 C 251.152 123, 250.087 123.560, 249.747 124.858 M 265 126.566 C 265 129.837, 265.220 130.107, 267.649 129.816 C 273.195 129.154, 272.950 123, 267.378 123 C 265.319 123, 265 123.478, 265 126.566 M 273 126.500 C 273 129.667, 273.262 129.994, 275.750 129.937 L 278.500 129.873 276 128.801 L 273.500 127.729 276 126.964 C 277.639 126.463, 277.897 126.165, 276.750 126.100 C 275.788 126.045, 275 125.583, 275 125.073 C 275 124.564, 275.788 123.941, 276.750 123.689 C 277.827 123.408, 277.442 123.187, 275.750 123.116 C 273.252 123.011, 273 123.320, 273 126.500 M 280.104 126.500 C 280.130 129.373, 280.354 129.955, 280.898 128.566 C 281.441 127.178, 281.870 126.980, 282.417 127.865 C 282.977 128.771, 283.529 128.806, 284.505 127.995 C 285.516 127.157, 285.945 127.324, 286.300 128.697 C 286.558 129.689, 286.797 128.700, 286.832 126.500 C 286.894 122.598, 286.857 122.555, 285.340 124.728 L 283.785 126.956 281.926 124.728 L 280.067 122.500 280.104 126.500 M 289 126.500 C 289 128.425, 289.450 130, 290 130 C 290.550 130, 291 128.425, 291 126.500 C 291 124.575, 290.550 123, 290 123 C 289.450 123, 289 124.575, 289 126.500 M 292.485 125.048 C 292.127 126.174, 292.377 127.749, 293.040 128.548 C 294.353 130.131, 298 130.545, 298 129.111 C 298 128.622, 297.212 128.285, 296.250 128.361 C 295.120 128.451, 294.500 127.791, 294.500 126.500 C 294.500 125.209, 295.120 124.549, 296.250 124.639 C 297.212 124.715, 298 124.378, 298 123.889 C 298 121.991, 293.130 123.014, 292.485 125.048 M 299.930 124.584 C 298.980 125.729, 298.905 126.630, 299.660 127.834 C 302.077 131.691, 307.876 129.334, 306.515 125.048 C 305.728 122.569, 301.831 122.294, 299.930 124.584 M 266.169 126.161 C 266.351 127.447, 267.175 128.500, 268 128.500 C 270.169 128.500, 269.870 124.599, 267.669 124.175 C 266.249 123.901, 265.912 124.347, 266.169 126.161 M 301.336 125.567 C 300.502 127.739, 302.618 129.782, 304.133 128.267 C 305.413 126.987, 304.620 124, 303 124 C 302.415 124, 301.667 124.705, 301.336 125.567 M 209.500 126 C 209.160 126.550, 209.359 127, 209.941 127 C 210.523 127, 211 126.550, 211 126 C 211 125.450, 210.802 125, 210.559 125 C 210.316 125, 209.840 125.450, 209.500 126 M 244.500 126 C 244.160 126.550, 244.359 127, 244.941 127 C 245.523 127, 246 126.550, 246 126 C 246 125.450, 245.802 125, 245.559 125 C 245.316 125, 244.840 125.450, 244.500 126 M 259.500 126 C 259.160 126.550, 259.359 127, 259.941 127 C 260.523 127, 261 126.550, 261 126 C 261 125.450, 260.802 125, 260.559 125 C 260.316 125, 259.840 125.450, 259.500 126 M 306.736 145.812 C 298.743 154.468, 290.695 163.203, 288.852 165.221 C 265.896 190.362, 248.424 209, 247.814 209 C 247.399 209, 242.126 203.938, 236.096 197.750 L 225.134 186.500 221.479 190 C 219.469 191.925, 216.474 195.190, 214.824 197.255 L 211.824 201.010 229.588 219.005 C 239.358 228.902, 247.684 237, 248.090 237 C 248.497 237, 255.955 229.244, 264.665 219.763 C 273.374 210.283, 291.975 190.128, 306 174.974 C 320.025 159.820, 332.370 146.412, 333.434 145.179 L 335.368 142.936 329.934 137.394 C 326.945 134.346, 323.773 131.452, 322.884 130.963 C 321.600 130.256, 318.284 133.305, 306.736 145.812 M 195 136 C 195 136.655, 214 137, 250 137 C 286 137, 305 136.655, 305 136 C 305 135.345, 286 135, 250 135 C 214 135, 195 135.345, 195 136 M 194.694 146.639 C 194.342 146.991, 194.294 147.666, 194.586 148.139 C 194.879 148.613, 218.218 149, 246.452 149 C 291.160 149, 297.860 148.806, 298.362 147.500 C 298.869 146.179, 292.771 146, 247.135 146 C 218.644 146, 195.046 146.288, 194.694 146.639 M 195.188 154.738 C 195.505 156.385, 198.104 156.500, 235.014 156.500 C 269.446 156.500, 274.500 156.308, 274.500 155 C 274.500 153.696, 269.292 153.466, 234.674 153.238 C 197.105 152.992, 194.868 153.077, 195.188 154.738 M 194 170.044 L 194 177.088 201.250 176.794 L 208.500 176.500 208.796 169.750 L 209.091 163 201.546 163 L 194 163 194 170.044 M 252 170 L 252 177 259 177 L 266 177 266 170 L 266 163 259 163 L 252 163 252 170 M 197 170.055 L 197 175.110 201.750 174.805 L 206.500 174.500 206.805 169.750 L 207.110 165 202.055 165 L 197 165 197 170.055 M 254.195 169.750 L 254.500 174.500 259.250 174.805 L 264 175.110 264 170.055 L 264 165 258.945 165 L 253.890 165 254.195 169.750 M 213 167 C 213 167.622, 218.667 168, 228 168 C 237.333 168, 243 167.622, 243 167 C 243 166.378, 237.333 166, 228 166 C 218.667 166, 213 166.378, 213 167 M 256.181 167.919 C 257.103 169.395, 257.107 170.166, 256.199 171.261 C 254.701 173.066, 255.869 174.353, 257.658 172.869 C 258.652 172.044, 259.395 172.083, 260.524 173.020 C 262.542 174.695, 263.726 173.392, 262.284 171.083 C 261.447 169.743, 261.439 168.961, 262.255 168.145 C 263.825 166.575, 262.352 165.463, 260.613 166.906 C 259.635 167.718, 258.972 167.763, 258.530 167.049 C 258.174 166.472, 257.230 166, 256.433 166 C 255.254 166, 255.207 166.358, 256.181 167.919 M 271 167 C 271 167.550, 272.998 168, 275.441 168 C 277.884 168, 280.160 167.550, 280.500 167 C 280.881 166.384, 279.177 166, 276.059 166 C 273.277 166, 271 166.450, 271 167 M 213.531 171.802 C 211.821 173.512, 214.163 174, 224.083 174 C 232.507 174, 235.066 173.700, 234.747 172.750 C 234.452 171.870, 231.326 171.466, 224.195 171.386 C 218.622 171.323, 213.823 171.510, 213.531 171.802 M 271.667 171.667 C 270.421 172.912, 270.993 174, 272.893 174 C 273.934 174, 275.045 173.325, 275.362 172.500 C 275.949 170.969, 273.024 170.309, 271.667 171.667 M 195 188 C 195 189.865, 195.667 190, 204.845 190 C 213.420 190, 214.924 189.742, 216.500 188 C 218.300 186.011, 218.247 186, 206.655 186 C 195.667 186, 195 186.114, 195 188 M 233.500 188 C 235.121 189.791, 236.580 190, 247.455 190 C 258.997 190, 262 189.339, 262 186.800 C 262 186.360, 255.180 186, 246.845 186 C 231.753 186, 231.698 186.008, 233.500 188 M 300.901 187.934 L 298.500 189.933 302.323 189.967 C 305.365 189.993, 306.081 189.659, 305.823 188.333 C 305.340 185.839, 303.588 185.697, 300.901 187.934 M 195 195.500 C 195 196.688, 196.433 197, 201.893 197 C 207.098 197, 208.927 196.633, 209.362 195.500 C 209.842 194.249, 208.697 194, 202.469 194 C 196.497 194, 195 194.301, 195 195.500 M 241 195.500 C 241.818 196.485, 244.049 197, 247.500 197 C 250.951 197, 253.182 196.485, 254 195.500 C 255.088 194.189, 254.271 194, 247.500 194 C 240.729 194, 239.912 194.189, 241 195.500 M 312.156 205.321 L 309.812 207.829 311.992 208.996 C 314.746 210.470, 315.219 209.969, 314.821 206.003 L 314.500 202.813 312.156 205.321 M 194.708 205.626 C 194.318 206.015, 194 209.183, 194 212.667 L 194 219 201.546 219 L 209.091 219 208.796 212.250 L 208.500 205.500 201.958 205.209 C 198.359 205.049, 195.097 205.237, 194.708 205.626 M 197 207.945 C 197 208.525, 197.338 208.929, 197.750 208.841 C 198.162 208.754, 199.293 209.029, 200.263 209.453 C 201.299 209.906, 202.638 209.715, 203.513 208.989 C 204.721 207.986, 205 208.048, 205 209.319 C 205 210.178, 204.592 211.134, 204.094 211.442 C 203.076 212.071, 205.031 216.980, 206.305 216.992 C 206.747 216.996, 206.972 214.863, 206.805 212.250 L 206.500 207.500 201.750 207.195 C 198.893 207.012, 197 207.311, 197 207.945 M 285 212.941 C 285 216.209, 285.427 219.146, 285.949 219.468 C 286.835 220.016, 296 218.158, 296 217.431 C 296 217.248, 295.513 214.826, 294.917 212.049 L 293.834 207 289.417 207 L 285 207 285 212.941 M 296.627 209.750 C 297.521 213.443, 298.858 217, 299.353 217 C 299.575 217, 301.498 216.272, 303.628 215.381 C 305.758 214.491, 308.625 213.334, 310 212.811 C 312.349 211.917, 312.386 211.796, 310.612 210.803 C 308.567 209.658, 299.294 207.031, 297.231 207.012 C 296.351 207.004, 296.166 207.843, 296.627 209.750 M 197 212.622 C 197 214.850, 197.228 215.056, 198.512 213.990 C 199.663 213.035, 199.753 212.407, 198.890 211.367 C 197.293 209.443, 197 209.637, 197 212.622 M 199 215.583 C 196.522 216.959, 196.533 216.971, 200.372 216.985 C 203.702 216.998, 204.070 216.790, 203 215.500 C 202.315 214.675, 201.698 214.044, 201.628 214.098 C 201.557 214.152, 200.375 214.820, 199 215.583 M 213 215 C 213 215.550, 214.688 215.993, 216.750 215.985 C 219.539 215.973, 220.116 215.721, 219 215 C 217.029 213.726, 213 213.726, 213 215 M 308.250 215.780 C 304.145 217.358, 302.634 219, 305.289 219 C 305.997 219, 308.342 219.900, 310.500 221 C 312.658 222.100, 314.553 223, 314.711 223 C 314.870 223, 315 220.975, 315 218.500 C 315 213.450, 314.665 213.315, 308.250 215.780 M 291 221.330 C 288.525 221.974, 286.545 223.063, 286.600 223.750 C 286.655 224.438, 286.767 225.900, 286.850 227 C 286.983 228.779, 287.717 229, 293.500 229 C 297.302 229, 300 228.572, 300 227.968 C 300 226.127, 297.125 219.998, 296.301 220.080 C 295.860 220.125, 293.475 220.687, 291 221.330 M 301.487 224.622 C 302.319 226.614, 303 228.414, 303 228.622 C 303 228.830, 303.675 229, 304.500 229 C 305.486 229, 306 229.986, 306 231.878 C 306 236.440, 308.026 237.313, 311.785 234.371 C 316.798 230.448, 316.261 227.004, 310.115 223.659 C 307.428 222.197, 304.047 221, 302.601 221 L 299.973 221 301.487 224.622 M 280.445 226.349 L 277.500 228.937 281.250 228.968 C 285.138 229.001, 285.352 228.753, 284.125 225.630 C 283.436 223.877, 283.206 223.922, 280.445 226.349 M 195 230.500 C 195 231.784, 197.902 232, 215.122 232 C 232.896 232, 235.100 231.825, 234 230.500 C 232.974 229.264, 229.438 229, 213.878 229 C 197.764 229, 195 229.220, 195 230.500 M 273.566 232.894 C 273.230 233.437, 274.375 237.058, 276.111 240.941 L 279.268 248 286.134 248 C 289.910 248, 292.994 247.887, 292.986 247.750 C 292.978 247.613, 291.254 244.125, 289.154 240 L 285.335 232.500 279.756 232.203 C 276.687 232.039, 273.902 232.350, 273.566 232.894 M 289 233.488 C 289 235.445, 293.586 244.626, 295 245.500 C 295.571 245.853, 298.293 244.487, 301.049 242.464 L 306.059 238.786 304.228 235.643 C 302.499 232.675, 302.024 232.484, 295.698 232.204 C 290.137 231.959, 289 232.177, 289 233.488 M 312.250 236.944 C 309.457 239.274, 309.478 239.776, 312.531 243.500 L 314.990 246.500 314.995 240.750 C 314.998 237.588, 314.887 235.015, 314.750 235.033 C 314.613 235.052, 313.488 235.911, 312.250 236.944 M 195 238 C 195 239.945, 195.667 240, 219.155 240 C 243.247 240, 243.305 239.995, 241.500 238 C 239.793 236.114, 238.420 236, 217.345 236 C 195.667 236, 195 236.060, 195 238 M 302.244 244.275 C 299.626 246.189, 298.345 247.745, 298.916 248.316 C 299.426 248.826, 299.643 249.766, 299.399 250.403 C 298.969 251.523, 305.639 258.807, 306.292 257.932 C 306.469 257.694, 308.051 255.635, 309.807 253.356 C 311.563 251.077, 313 248.909, 313 248.539 C 313 247.525, 307.856 240.988, 307.131 241.081 C 306.784 241.126, 304.585 242.563, 302.244 244.275 M 196.745 247.750 C 193.600 251.268, 194.490 256.991, 198.464 258.802 C 205.103 261.826, 211.541 252.515, 206.171 247.655 C 203.777 245.488, 198.722 245.539, 196.745 247.750 M 254.039 248.189 C 249.931 252.598, 253.096 259, 259.384 259 C 263.434 259, 266 256.412, 266 252.326 C 266 246.360, 258.242 243.677, 254.039 248.189 M 197.372 250.655 C 196.554 253.912, 197.975 256.392, 200.907 256.827 C 203.734 257.246, 206 255.355, 206 252.578 C 206 249.626, 204.160 248, 200.819 248 C 198.643 248, 197.893 248.578, 197.372 250.655 M 213.693 248.640 C 211.744 250.589, 214.250 251, 228.083 251 C 239.705 251, 243.071 250.713, 242.751 249.750 C 242.451 248.848, 238.449 248.423, 228.361 248.224 C 220.675 248.072, 214.074 248.259, 213.693 248.640 M 254.980 250.038 C 254.380 251.159, 254.169 252.958, 254.511 254.035 C 255.250 256.363, 259.650 257.708, 261.905 256.295 C 263.941 255.020, 264.508 251.317, 262.954 249.445 C 261.142 247.262, 256.272 247.624, 254.980 250.038 M 257.690 250.154 C 255.645 251.298, 255.509 253.347, 257.373 254.895 C 259.353 256.538, 262 255.168, 262 252.500 C 262 249.839, 260.100 248.805, 257.690 250.154 M 282.244 252.250 C 282.857 254.119, 287.485 254.326, 288.958 252.551 C 290.086 251.192, 289.725 251, 286.039 251 C 283.122 251, 281.959 251.383, 282.244 252.250 M 290.238 254.421 L 286.505 257.842 289.502 260.479 C 291.151 261.930, 293.798 263.809, 295.385 264.654 C 298.172 266.139, 298.375 266.086, 301.355 263.107 L 304.439 260.023 300.011 255.511 C 297.576 253.030, 295.221 251, 294.777 251 C 294.334 251, 292.291 252.539, 290.238 254.421 M 311.132 255.450 L 307.763 260.157 311.132 262.978 L 314.500 265.800 314.809 261.874 C 314.979 259.714, 314.979 256.326, 314.809 254.345 L 314.500 250.743 311.132 255.450 M 213 255 C 213 255.606, 217.333 256, 224 256 C 230.667 256, 235 255.606, 235 255 C 235 254.394, 230.667 254, 224 254 C 217.333 254, 213 254.394, 213 255 M 282.188 262.960 C 280.985 264.587, 280 266.291, 280 266.746 C 280 267.380, 292.203 267.708, 293.827 267.119 C 294.175 266.992, 285.191 260, 284.679 260 C 284.513 260, 283.391 261.332, 282.188 262.960 M 303.692 264.047 C 300.882 267.329, 301.555 267.615, 310.827 267.077 C 311.932 267.013, 306.997 262, 305.828 262 C 305.617 262, 304.656 262.921, 303.692 264.047 M 246.750 273.080 C 244.740 274.251, 244.401 279.001, 246.200 280.800 C 246.860 281.460, 248.570 282, 250 282 C 253.189 282, 255 280.323, 255 277.371 C 255 273.041, 250.677 270.793, 246.750 273.080 M 136.667 301.667 C 136.300 302.033, 136 315.758, 136 332.167 L 136 362 143.500 362 L 151 362 151 331.500 L 151 301 144.167 301 C 140.408 301, 137.033 301.300, 136.667 301.667 M 165.750 301.578 C 165.338 301.993, 165 315.798, 165 332.256 L 165 362.178 185.250 361.826 C 208.051 361.430, 210.868 360.728, 218.945 353.431 C 225.237 347.746, 227.284 343.013, 227.778 333 C 228.177 324.912, 228.035 324.187, 224.842 318.045 C 222.694 313.915, 219.942 310.413, 217.199 308.321 C 210.087 302.897, 204.709 301.734, 184.500 301.252 C 174.600 301.016, 166.162 301.163, 165.750 301.578 M 239 331.517 L 239 362.034 264.250 361.767 L 289.500 361.500 289.328 357.500 C 289.234 355.300, 289.121 352.712, 289.078 351.750 C 289.007 350.153, 287.470 350, 271.500 350 L 254 350 254 343.500 L 254 337 269 337 L 284 337 284 331.500 L 284 326 269 326 L 254 326 254 319.500 L 254 313 271 313 L 288 313 288 307 L 288 301 263.500 301 L 239 301 239 331.517 M 318.603 306.250 C 317.298 309.137, 313.203 318.025, 309.503 326 C 297.649 351.548, 296.786 353.426, 294.912 357.750 L 293.071 362 300.872 362 L 308.673 362 311.261 356 L 313.850 350 328.794 350 L 343.739 350 346.341 356 L 348.943 362 356.930 362 L 364.916 362 362.063 355.750 C 357.006 344.671, 337.484 303.541, 336.670 302.250 C 336.155 301.432, 333.304 301, 328.428 301 L 320.975 301 318.603 306.250 M 180.750 313.551 C 180.338 313.981, 180 322.358, 180 332.167 L 180 350 189.032 350 C 198.691 350, 203.665 348.598, 207.824 344.702 C 216.009 337.035, 214.039 321.659, 204.169 316.169 C 200.942 314.374, 197.856 313.716, 190.739 313.303 C 185.658 313.009, 181.162 313.121, 180.750 313.551 M 323.755 327.500 L 319.139 338 328.653 338 C 333.886 338, 338.017 337.596, 337.833 337.102 C 335.637 331.184, 329.367 317.033, 328.936 317.019 C 328.625 317.008, 326.294 321.725, 323.755 327.500" stroke="none" fill="currentColor" fill-rule="evenodd"/>
</svg>